<svg xmlns="http://www.w3.org/2000/svg" viewBox="0 0 512 512">
  <rect width="512" height="512" rx="100" fill="#f4f7fa" />
  
  <!-- Circuit lines -->
  <g stroke="#cbd5e1" stroke-width="6" fill="none" stroke-linecap="round" stroke-linejoin="round">
    <path d="M 50 256 h 50 m 312 0 h 50 M 256 50 v 50 m 0 312 v 50" />
    <path d="M 100 100 l 40 40 m 232 232 l 40 40 M 412 100 l -40 40 M 100 412 l 40 -40" />
    <path d="M 50 150 h 40 l 30 30 M 462 150 h -40 l -30 30 M 50 362 h 40 l 30 -30 M 462 362 h -40 l -30 -30" />
    <path d="M 150 50 v 40 l 30 30 M 150 462 v -40 l 30 -30 M 362 50 v 40 l -30 30 M 362 462 v -40 l -30 -30" />
    
    <!-- Dots -->
    <circle cx="140" cy="140" r="8" fill="#cbd5e1" />
    <circle cx="372" cy="140" r="8" fill="#cbd5e1" />
    <circle cx="140" cy="372" r="8" fill="#cbd5e1" />
    <circle cx="372" cy="372" r="8" fill="#cbd5e1" />
    
    <circle cx="120" cy="180" r="6" fill="#cbd5e1" />
    <circle cx="392" cy="180" r="6" fill="#cbd5e1" />
    <circle cx="120" cy="332" r="6" fill="#cbd5e1" />
    <circle cx="392" cy="332" r="6" fill="#cbd5e1" />
    
    <circle cx="180" cy="120" r="6" fill="#cbd5e1" />
    <circle cx="332" cy="120" r="6" fill="#cbd5e1" />
    <circle cx="180" cy="392" r="6" fill="#cbd5e1" />
    <circle cx="332" cy="392" r="6" fill="#cbd5e1" />
  </g>

  <!-- Concentric circles -->
  <circle cx="256" cy="256" r="170" fill="none" stroke="#e2e8f0" stroke-width="16" />
  <circle cx="256" cy="256" r="140" fill="none" stroke="#cbd5e1" stroke-width="4" />
  <circle cx="256" cy="256" r="190" fill="none" stroke="#cbd5e1" stroke-width="2" stroke-dasharray="10 10" />

  <!-- Text -->
  <text x="236" y="330" font-family="system-ui, -apple-system, sans-serif" font-weight="800" font-size="210" fill="#334e68" text-anchor="middle" letter-spacing="-5">VAI</text>
  <text x="400" y="190" font-family="system-ui, -apple-system, sans-serif" font-weight="800" font-size="80" fill="#334e68" text-anchor="middle">%</text>
</svg>
